<?xml version="1.0" encoding="utf-8"?>
<!-- Generator: Adobe Illustrator 18.0.0, SVG Export Plug-In . SVG Version: 6.00 Build 0)  -->
<!DOCTYPE svg PUBLIC "-//W3C//DTD SVG 1.1//EN" "http://www.w3.org/Graphics/SVG/1.1/DTD/svg11.dtd">
<svg version="1.1" id="Calque_1" xmlns="http://www.w3.org/2000/svg" xmlns:xlink="http://www.w3.org/1999/xlink" x="0px" y="0px"
	 viewBox="0 0 32 32" enable-background="new 0 0 32 32" xml:space="preserve">
<g>
	<rect x="12" y="7.5" fill="#231F20" width="8" height="2"/>
	<rect x="25" y="13.5" fill="#231F20" width="2" height="8"/>
	<rect x="5" y="13.5" fill="#231F20" width="2" height="8"/>
	<path fill="#231F20" d="M8,24.5h16v-14H8V24.5z M20,22.5h-8v-2h8V22.5z M20,13.5c1.1,0,2,0.9,2,2s-0.9,2-2,2s-2-0.9-2-2
		S18.9,13.5,20,13.5z M12,13.5c1.1,0,2,0.9,2,2s-0.9,2-2,2s-2-0.9-2-2S10.9,13.5,12,13.5z"/>
</g>
</svg>
