<?xml version="1.0" encoding="utf-8"?>
<!-- Generator: Adobe Illustrator 18.0.0, SVG Export Plug-In . SVG Version: 6.00 Build 0)  -->
<!DOCTYPE svg PUBLIC "-//W3C//DTD SVG 1.1//EN" "http://www.w3.org/Graphics/SVG/1.1/DTD/svg11.dtd">
<svg version="1.1" fill="#7c5cd1" xmlns="http://www.w3.org/2000/svg" xmlns:xlink="http://www.w3.org/1999/xlink" x="0px" y="0px"
	 viewBox="0 0 32 32" enable-background="new 0 0 32 32" xml:space="preserve">
<path d="M16,7c-5.6,0-10.3,3.8-11.6,9c1.3,5.2,6,9,11.6,9s10.3-3.8,11.6-9C26.3,10.8,21.6,7,16,7z M16,20.8c-2.7,0-4.8-2.2-4.8-4.8
	s2.2-4.8,4.8-4.8s4.8,2.2,4.8,4.8S18.7,20.8,16,20.8z M16.3,15c0,0.8-0.7,1.5-1.5,1.5s-1.5-0.7-1.5-1.5s0.7-1.5,1.5-1.5
	S16.3,14.2,16.3,15z"/>
</svg>
