<?xml version="1.0" encoding="utf-8"?>
<!-- Generator: Adobe Illustrator 18.0.0, SVG Export Plug-In . SVG Version: 6.00 Build 0)  -->
<!DOCTYPE svg PUBLIC "-//W3C//DTD SVG 1.1//EN" "http://www.w3.org/Graphics/SVG/1.1/DTD/svg11.dtd">
<svg version="1.1" id="Calque_1" xmlns="http://www.w3.org/2000/svg" xmlns:xlink="http://www.w3.org/1999/xlink" x="0px" y="0px"
	 viewBox="0 0 32 32" enable-background="new 0 0 32 32" xml:space="preserve">
<g>
	<rect x="10.9" y="5.2" width="10.2" height="2.5"/>
	<rect x="27.5" y="12.8" width="2.5" height="10.2"/>
	<rect x="2" y="12.8" width="2.5" height="10.2"/>
	<path d="M5.8,26.8h20.4V9H5.8V26.8z M21.1,24.3H10.9v-2.5h10.2V24.3z M21.1,12.8c1.4,0,2.5,1.1,2.5,2.5s-1.1,2.5-2.5,2.5
		c-1.4,0-2.5-1.1-2.5-2.5S19.7,12.8,21.1,12.8z M10.9,12.8c1.4,0,2.5,1.1,2.5,2.5s-1.1,2.5-2.5,2.5s-2.5-1.1-2.5-2.5
		S9.5,12.8,10.9,12.8z"/>
</g>
</svg>
