<?xml version="1.0" encoding="utf-8"?>
<!-- Generator: Adobe Illustrator 18.0.0, SVG Export Plug-In . SVG Version: 6.00 Build 0)  -->
<!DOCTYPE svg PUBLIC "-//W3C//DTD SVG 1.1//EN" "http://www.w3.org/Graphics/SVG/1.1/DTD/svg11.dtd">
<svg version="1.1" id="Calque_1" xmlns="http://www.w3.org/2000/svg" xmlns:xlink="http://www.w3.org/1999/xlink" x="0px" y="0px"
	 viewBox="0 0 32 32" enable-background="new 0 0 32 32" xml:space="preserve">
<path d="M29.5,23.8c-2.3,0-4.2-1.9-4.2-4.2v-6.2c0-4.5-3.1-8.1-7.3-9.2V4c0-1.1-0.9-2-2-2c-1.1,0-2,0.9-2,2c0,0.2,0,0.2,0,0.2
	c-4.2,0.9-7.3,4.7-7.3,9.2v6.2c0,2.3-1.9,4.2-4.2,4.2V28H13c0.5,1.2,1.6,2,3,2s2.5-0.9,3-2h10.6V23.8z"/>
<g>
</g>
</svg>
