<?xml version="1.0" encoding="utf-8"?>
<!-- Generator: Adobe Illustrator 18.0.0, SVG Export Plug-In . SVG Version: 6.00 Build 0)  -->
<!DOCTYPE svg PUBLIC "-//W3C//DTD SVG 1.1//EN" "http://www.w3.org/Graphics/SVG/1.1/DTD/svg11.dtd">
<svg version="1.1" id="Calque_1" xmlns="http://www.w3.org/2000/svg" xmlns:xlink="http://www.w3.org/1999/xlink" x="0px" y="0px"
	 viewBox="0 0 32 32" enable-background="new 0 0 32 32" xml:space="preserve">
<path d="M24.7,21c-1.5,0-2.7-1.2-2.7-2.7v-4c0-2.9-2-5.2-4.7-5.9c0,0,0-0.1,0-0.1C17.3,7.6,16.7,7,16,7c-0.7,0-1.3,0.6-1.3,1.3
	c0,0.1,0,0.1,0,0.1c-2.7,0.6-4.7,3-4.7,5.9v4c0,1.5-1.2,2.7-2.7,2.7v2.7h6.8c0.3,0.8,1,1.3,1.9,1.3c0.9,0,1.6-0.6,1.9-1.3h6.8V21z"
	/>
</svg>
