<?xml version="1.0" encoding="utf-8"?>
<!-- Generator: Adobe Illustrator 18.0.0, SVG Export Plug-In . SVG Version: 6.00 Build 0)  -->
<!DOCTYPE svg PUBLIC "-//W3C//DTD SVG 1.1//EN" "http://www.w3.org/Graphics/SVG/1.1/DTD/svg11.dtd">
<svg version="1.1" fill="#f4f2fc" id="btc" xmlns="http://www.w3.org/2000/svg" xmlns:xlink="http://www.w3.org/1999/xlink" x="0px" y="0px"
	 viewBox="0 0 32 32" enable-background="new 0 0 32 32" xml:space="preserve">
<path d="M14.2,16.8v4.5c1.4,0,5.7,0.2,5.7-2.4C20,16.3,15.6,16.8,14.2,16.8z M19,12.6c0-2.5-3.6-2-4.9-2v4.1
	C15.4,14.7,19,14.9,19,12.6z M18,23.7v3.4h-2v-3.4c-0.5,0-1,0-1.6,0v3.4h-2v-3.4c-0.5,0-1,0-1.5,0H8.3l0.4-2.5h1.5
	c0.5,0,0.7-0.4,0.8-0.7c-0.1-9.2,0,0-0.1-9.2c-0.1-0.4-0.4-0.9-1.1-0.9H8.3V8.2h2.9l0,0c0.4,0,0.9,0,1.3,0V4.8h2v3.3
	c0.5,0,1.1,0,1.6,0V4.8h2v3.4c2.6,0.2,4.8,1,5,3.4c0.2,1.8-0.5,2.9-1.8,3.5c2,0.5,3.2,1.6,3,4.3C23.8,22.6,21.4,23.5,18,23.7z"/>
</svg>
