<?xml version="1.0" encoding="utf-8"?>
<!-- Generator: Adobe Illustrator 18.0.0, SVG Export Plug-In . SVG Version: 6.00 Build 0)  -->
<!DOCTYPE svg PUBLIC "-//W3C//DTD SVG 1.1//EN" "http://www.w3.org/Graphics/SVG/1.1/DTD/svg11.dtd">
<svg version="1.1" id="Calque_1" xmlns="http://www.w3.org/2000/svg" xmlns:xlink="http://www.w3.org/1999/xlink" x="0px" y="0px"
	 viewBox="496 496 32 32" enable-background="new 496 496 32 32" xml:space="preserve">
<path d="M511.3,523.5c2.4,0,4.6-0.8,6.5-2.2l-1.1-1.5c-1.5,1.2-3.4,1.8-5.4,1.8c-2.4,0-4.6-0.9-6.3-2.6c-1.7-1.7-2.6-3.9-2.6-6.3
	c0-2.4,0.9-4.6,2.6-6.3c1.6-1.7,3.9-2.6,6.2-2.6c2.4,0,4.6,0.9,6.4,2.6l0.6,0.6l-1.5,1.5l4.7,0.9l-0.4-5.1l-1.5,1.5l-0.6-0.6
	c-2-2-4.7-3.2-7.6-3.2c-2.9,0-5.5,1.1-7.6,3.2c-4.2,4.2-4.2,11,0,15.2C505.7,522.4,508.4,523.5,511.3,523.5z"/>
</svg>
