<?xml version="1.0" encoding="utf-8"?>
<!-- Generator: Adobe Illustrator 18.0.0, SVG Export Plug-In . SVG Version: 6.00 Build 0)  -->
<!DOCTYPE svg PUBLIC "-//W3C//DTD SVG 1.1//EN" "http://www.w3.org/Graphics/SVG/1.1/DTD/svg11.dtd">
<svg version="1.1" id="Calque_1" xmlns="http://www.w3.org/2000/svg" xmlns:xlink="http://www.w3.org/1999/xlink" x="0px" y="0px"
	 viewBox="0 0 32 32" enable-background="new 0 0 32 32" xml:space="preserve">
<path d="M26.2,13.5v6.5H18v-6.5H26.2z M23.8,16.8c0-0.9-0.7-1.6-1.6-1.6c-0.9,0-1.6,0.7-1.6,1.6c0,0.9,0.7,1.6,1.6,1.6
	C23,18.5,23.8,17.7,23.8,16.8z M25.4,12.7V8.6h-0.8H6.8V8.1h17.8V7H7.4C6.5,7,5.8,7.7,5.8,8.6v14.7c0,0.9,0.7,1.6,1.6,1.6h18v-4.1
	h-8.2v-8.2H25.4z"/>
</svg>
