<?xml version="1.0" encoding="utf-8"?>
<!-- Generator: Adobe Illustrator 18.0.0, SVG Export Plug-In . SVG Version: 6.00 Build 0)  -->
<!DOCTYPE svg PUBLIC "-//W3C//DTD SVG 1.1//EN" "http://www.w3.org/Graphics/SVG/1.1/DTD/svg11.dtd">
<svg version="1.1" id="Calque_1" xmlns="http://www.w3.org/2000/svg" xmlns:xlink="http://www.w3.org/1999/xlink" x="0px" y="0px"
	 viewBox="0 0 32 32" enable-background="new 0 0 32 32" xml:space="preserve">
<path d="M30,12.6v8.9H18.7v-8.9H30z M26.7,17.2c0-1.2-1-2.2-2.2-2.2c-1.2,0-2.2,1-2.2,2.2c0,1.2,1,2.2,2.2,2.2
	C25.6,19.5,26.7,18.4,26.7,17.2z M28.9,11.5V5.9h-1.1H3.4V5.2h24.4V3.7H4.2C3,3.7,2,4.7,2,5.9v20.2c0,1.2,1,2.2,2.2,2.2h24.7v-5.6
	H17.6V11.4h11.3V11.5z"/>
</svg>
