<?xml version="1.0" encoding="utf-8"?>
<!-- Generator: Adobe Illustrator 18.0.0, SVG Export Plug-In . SVG Version: 6.00 Build 0)  -->
<!DOCTYPE svg PUBLIC "-//W3C//DTD SVG 1.1//EN" "http://www.w3.org/Graphics/SVG/1.1/DTD/svg11.dtd">
<svg version="1.1" id="Calque_1" xmlns="http://www.w3.org/2000/svg" xmlns:xlink="http://www.w3.org/1999/xlink" x="0px" y="0px"
	 viewBox="0 0 32 32" enable-background="new 0 0 32 32" xml:space="preserve">
<path d="M27.4,13c0.1,0.5,0.1,0.9,0.1,1.4c0,0.4,0,0.8-0.1,1.2c-0.1,0.4-0.2,0.9-0.4,1.3c-0.1,0.3-0.3,0.7-0.5,1
	c-0.6,1-1.5,2-2.5,2.8c-1,0.8-2.3,1.4-3.7,1.9c-1.4,0.4-2.9,0.7-4.4,0.7s-3.1-0.2-4.4-0.7C10.2,22,9,21.4,7.9,20.6
	c-1.1-0.8-1.9-1.7-2.5-2.8c-0.2-0.3-0.3-0.7-0.5-1c-0.2-0.4-0.3-0.8-0.4-1.3c-0.1-0.4-0.1-0.8-0.1-1.2c0-0.5,0-0.9,0.1-1.4
	c0.1,0.4,0.2,0.9,0.4,1.3c0.1,0.3,0.3,0.7,0.5,1c0.1,0.1,0.1,0.2,0.2,0.3C6.2,16.5,7,17.3,7.9,18c1,0.8,2.3,1.4,3.6,1.9
	c1.4,0.4,2.9,0.7,4.4,0.7s3.1-0.2,4.4-0.7c1.4-0.4,2.6-1.1,3.7-1.9c0.9-0.7,1.7-1.5,2.3-2.5c0.1-0.1,0.1-0.2,0.2-0.3
	c0.2-0.3,0.3-0.6,0.5-1C27.2,13.9,27.4,13.4,27.4,13z M6.5,11.8c0-0.2-0.1-0.5-0.1-0.8c0-0.8,0.2-1.7,0.6-2.5C7.5,7.6,8.1,6.9,9,6.2
	c0.9-0.7,1.9-1.2,3.1-1.6C13.3,4.2,14.6,4,16,4c1.4,0,2.7,0.2,3.9,0.6C21.1,5,22.2,5.5,23,6.2c0.8,0.7,1.5,1.4,1.9,2.2
	c0.4,0.8,0.6,1.6,0.6,2.5c0,0.3,0,0.6-0.1,0.8c-0.1,0.3-0.1,0.6-0.3,1c-0.1,0.2-0.2,0.5-0.3,0.7l-0.1,0.2c-0.5,0.7-1.1,1.4-1.8,1.9
	c-0.9,0.7-1.9,1.2-3.1,1.6c-1.2,0.4-2.5,0.6-3.8,0.6c-1.3,0-2.6-0.2-3.8-0.6c-1.1-0.4-2.2-0.9-3.1-1.6c-0.8-0.6-1.4-1.2-1.8-1.9
	l-0.1-0.2c-0.2-0.3-0.3-0.5-0.3-0.7C6.7,12.4,6.6,12.1,6.5,11.8z M14.1,9.2c0,0.6,0,0.9,0,1.1c0,0.2,0,0.2,0,0.2s0,0,0,0.2
	c0,0.2,0,0.5,0,1.1c0,0,0,0,0,0.1s0,0,0,0.1c0,0,0,0-0.1,0c0,0-0.1,0-0.1,0h-0.5l-0.1,0.7h0.9c0,0,0.1,0,0.1,0c0,0,0.1,0,0.1,0
	c0,0,0.1,0,0.1,0s0.1,0,0.1,0l0,0.9h0.7l0-0.9c0,0,0.1,0,0.1,0s0.1,0,0.1,0c0,0,0.1,0,0.1,0s0.1,0,0.1,0l0,0.9h0.7l0-0.9
	c0.3,0,0.6,0,0.9-0.1c0.3,0,0.5-0.1,0.7-0.2c0.2-0.1,0.3-0.2,0.5-0.3c0.1-0.1,0.2-0.3,0.2-0.5c0-0.2,0-0.3,0-0.5
	c0-0.1-0.1-0.2-0.2-0.3c-0.1-0.1-0.2-0.2-0.3-0.2c-0.1-0.1-0.3-0.1-0.5-0.1c0.1,0,0.2-0.1,0.3-0.1c0.1-0.1,0.2-0.1,0.2-0.2
	c0.1-0.1,0.1-0.2,0.1-0.3c0-0.1,0-0.2,0-0.3c0-0.2-0.1-0.3-0.2-0.4c-0.1-0.1-0.2-0.2-0.4-0.3c-0.2-0.1-0.3-0.1-0.5-0.2
	c-0.2,0-0.4-0.1-0.6-0.1l0-0.9h-0.7l0,0.9c0,0,0,0,0,0c0,0,0,0,0,0c0,0,0,0,0,0c0,0,0,0,0,0c0,0-0.1,0-0.1,0s-0.1,0-0.1,0
	c0,0-0.1,0-0.1,0c0,0-0.1,0-0.1,0l0-0.9h-0.7l0,0.9c0,0-0.1,0-0.1,0c0,0-0.1,0-0.1,0c0,0-0.1,0-0.1,0s-0.1,0-0.1,0h-1l0,0.6
	c0,0,0,0,0,0c0,0,0.1,0,0.1,0s0.1,0,0.1,0c0,0,0.1,0,0.1,0c0,0,0,0,0.1,0c0,0,0,0,0,0s0,0,0,0c0,0,0,0,0,0c0,0,0,0,0,0c0,0,0,0,0,0
	c0,0,0,0,0,0c0,0,0,0,0,0c0.1,0,0.1,0,0.1,0C13.9,9,14,9,14,9C14,9.1,14.1,9.1,14.1,9.2C14.1,9.1,14.1,9.2,14.1,9.2z M26.6,22.1
	c-0.6,1-1.5,2-2.5,2.8c-1,0.8-2.3,1.4-3.7,1.9c-1.4,0.4-2.9,0.7-4.4,0.7s-3.1-0.2-4.4-0.7c-1.4-0.4-2.6-1.1-3.6-1.9
	c-1.1-0.8-1.9-1.7-2.5-2.8c-0.4-0.7-0.7-1.5-0.8-2.3c-0.1,0.5-0.1,0.9-0.1,1.4c0,1.2,0.4,2.4,1,3.4c0.6,1,1.4,2,2.5,2.8
	c1,0.8,2.3,1.4,3.6,1.9c1.4,0.4,2.9,0.7,4.4,0.7s3.1-0.2,4.4-0.7s2.6-1.1,3.7-1.9c1-0.8,1.9-1.7,2.5-2.8c0.6-1.1,0.9-2.2,1-3.4
	c0-0.5,0-0.9-0.1-1.4C27.3,20.7,27,21.4,26.6,22.1z M4.6,12.1c-0.1-0.4-0.1-0.8-0.1-1.2c0-1.2,0.3-2.4,0.9-3.5
	c0.6-1.1,1.4-2,2.4-2.9c1.1-0.8,2.3-1.5,3.7-1.9C12.8,2.3,14.4,2,16,2s3.2,0.3,4.6,0.7c1.4,0.5,2.7,1.1,3.7,1.9
	c1,0.8,1.9,1.8,2.5,2.9c0.6,1.1,0.9,2.2,0.8,3.5c0,0.4,0,0.8-0.1,1.2c-0.1,0.4-0.2,0.9-0.4,1.3c-0.1,0.3-0.3,0.7-0.5,1
	c-0.1,0.1-0.1,0.2-0.2,0.3c-0.6,0.9-1.4,1.8-2.3,2.5c-1,0.8-2.3,1.4-3.7,1.9c-1.4,0.4-2.9,0.7-4.4,0.7s-3.1-0.2-4.4-0.7
	C10.2,18.6,9,18,7.9,17.2c-1-0.7-1.7-1.5-2.3-2.5c-0.1-0.1-0.1-0.2-0.2-0.3c-0.2-0.3-0.3-0.7-0.5-1C4.8,13,4.6,12.6,4.6,12.1z
	 M5.4,11c0,0.4,0,0.7,0.1,1c0.1,0.4,0.2,0.8,0.3,1.1c0.1,0.3,0.2,0.5,0.4,0.9c0,0.1,0.1,0.2,0.1,0.2C7,15,7.6,15.7,8.5,16.4
	c1,0.7,2.1,1.3,3.4,1.7c1.3,0.4,2.7,0.6,4.1,0.6s2.8-0.2,4.1-0.6c1.3-0.4,2.4-1,3.4-1.7c0.9-0.6,1.5-1.4,2.1-2.3
	c0-0.1,0.1-0.1,0.1-0.2c0.1-0.3,0.3-0.5,0.4-0.8c0.2-0.4,0.3-0.8,0.3-1.1c0.1-0.3,0.1-0.6,0.1-1c0-1-0.2-2-0.7-3
	c-0.5-0.9-1.2-1.8-2.2-2.5c-1-0.8-2.1-1.4-3.4-1.8C18.9,3.2,17.5,3,16,3c-1.5,0-2.9,0.2-4.2,0.7c-1.3,0.4-2.4,1-3.4,1.8
	C7.4,6.2,6.7,7,6.2,8C5.7,8.9,5.4,9.9,5.4,11z M27.1,17.7c-0.1,0.3-0.3,0.7-0.5,1c-0.6,1-1.5,2-2.5,2.8c-1,0.8-2.3,1.4-3.7,1.9
	S17.6,24,16,24s-3.1-0.2-4.4-0.7c-1.4-0.4-2.6-1.1-3.6-1.9c-1.1-0.8-1.9-1.7-2.5-2.8c-0.2-0.3-0.3-0.7-0.5-1
	c-0.2-0.4-0.3-0.8-0.4-1.3c-0.1,0.5-0.1,0.9-0.1,1.4c0,0.4,0,0.8,0.1,1.2c0.2,0.8,0.4,1.6,0.8,2.3c0.6,1,1.4,2,2.5,2.8
	c1,0.8,2.3,1.4,3.6,1.9c1.4,0.4,2.9,0.7,4.4,0.7s3.1-0.2,4.4-0.7c1.4-0.4,2.6-1.1,3.7-1.9c1-0.8,1.9-1.7,2.5-2.8
	c0.4-0.7,0.7-1.5,0.8-2.3c0.1-0.4,0.1-0.8,0.1-1.2c0-0.5,0-0.9-0.1-1.4C27.4,16.9,27.2,17.3,27.1,17.7z"/>
</svg>
