<?xml version="1.0" encoding="utf-8"?>
<!-- Generator: Adobe Illustrator 18.0.0, SVG Export Plug-In . SVG Version: 6.00 Build 0)  -->
<!DOCTYPE svg PUBLIC "-//W3C//DTD SVG 1.1//EN" "http://www.w3.org/Graphics/SVG/1.1/DTD/svg11.dtd">
<svg version="1.1" id="Calque_1" xmlns="http://www.w3.org/2000/svg" xmlns:xlink="http://www.w3.org/1999/xlink" x="0px" y="0px"
	 viewBox="496 496 32 32" enable-background="new 496 496 32 32" xml:space="preserve">
<g>
	<path d="M516.7,502h-9.5v2.3h9.5V502z M515.9,503.5h-7.9v-0.7h7.9V503.5z"/>
	<path d="M499,518.5h2.3V509H499V518.5z M499.8,509.8h0.7v7.9h-0.7V509.8z"/>
	<path d="M510.4,511.4c0-1.8-1.4-3.1-3.1-3.1s-3.1,1.4-3.1,3.1s1.4,3.1,3.1,3.1S510.4,513.1,510.4,511.4z M504.9,511.3
		c0-1.3,1-2.3,2.3-2.3s2.3,1,2.3,2.3c0,1.3-1,2.3-2.3,2.3S504.9,512.7,504.9,511.3z"/>
	<path d="M506.5,520.5h11.1v-3.9h-11.1V520.5z M507.3,517.4h9.5v2.3h-9.5V517.4z"/>
	<path d="M516.7,508.2c-1.8,0-3.1,1.4-3.1,3.1s1.4,3.1,3.1,3.1c1.8,0,3.1-1.4,3.1-3.1S518.5,508.2,516.7,508.2z M516.7,513.7
		c-1.3,0-2.3-1-2.3-2.3c0-1.3,1-2.3,2.3-2.3s2.3,1,2.3,2.3C519.1,512.7,518,513.7,516.7,513.7z"/>
	<path d="M522.7,509v9.5h2.3V509H522.7z M524.2,517.7h-0.7v-7.9h0.7V517.7z"/>
	<path d="M502.5,522h18.9v-16.5h-18.9V522z M503.3,506.3h17.3v14.9h-17.3V506.3z"/>
</g>
</svg>
