<?xml version="1.0" encoding="utf-8"?>
<!-- Generator: Adobe Illustrator 18.0.0, SVG Export Plug-In . SVG Version: 6.00 Build 0)  -->
<!DOCTYPE svg PUBLIC "-//W3C//DTD SVG 1.1//EN" "http://www.w3.org/Graphics/SVG/1.1/DTD/svg11.dtd">
<svg version="1.1" id="Calque_1" xmlns="http://www.w3.org/2000/svg" xmlns:xlink="http://www.w3.org/1999/xlink" x="0px" y="0px"
	 viewBox="0 0 32 32" enable-background="new 0 0 32 32" xml:space="preserve">
<path d="M26.6,11.7h-5.9v-6C20.7,5.3,20.4,5,20,5h-0.1c-0.4,0-0.7,0.3-0.7,0.7v6h-5.8v-6c0-0.4-0.3-0.7-0.7-0.7h-0.1
	C12.3,5,12,5.3,12,5.7v6H5.9c-0.4,0-0.7,0.3-0.7,0.7v0.1c0,0.4,0.3,0.7,0.7,0.7H12v5.5H5.4c-0.4,0-0.7,0.3-0.7,0.7v0.1
	c0,0.4,0.3,0.7,0.7,0.7H12v6.4c0,0.4,0.3,0.6,0.7,0.6h0.1c0.4,0,0.7-0.3,0.7-0.6V20h5.8v6.4c0,0.4,0.3,0.6,0.7,0.6H20
	c0.4,0,0.7-0.3,0.7-0.6V20h5.5c0.4,0,0.7-0.3,0.7-0.7v-0.1c0-0.4-0.3-0.7-0.7-0.7h-5.5v-5.5h5.9c0.4,0,0.6-0.3,0.6-0.7v-0.1
	C27.2,11.9,26.9,11.7,26.6,11.7z M19.3,18.6h-5.8v-5.5h5.8V18.6z"/>
</svg>
