<?xml version="1.0" encoding="utf-8"?>
<!-- Generator: Adobe Illustrator 18.0.0, SVG Export Plug-In . SVG Version: 6.00 Build 0)  -->
<!DOCTYPE svg PUBLIC "-//W3C//DTD SVG 1.1//EN" "http://www.w3.org/Graphics/SVG/1.1/DTD/svg11.dtd">
<svg version="1.1" id="Calque_1" xmlns="http://www.w3.org/2000/svg" xmlns:xlink="http://www.w3.org/1999/xlink" x="0px" y="0px"
	 viewBox="0 0 32 32" enable-background="new 0 0 32 32" xml:space="preserve">
<path fill="#231F20" d="M25.7,16.4C25.7,16.4,25.7,16.4,25.7,16.4c0.1-0.2,0.1-0.3,0.1-0.4c0-0.1,0-0.2-0.1-0.3c0,0,0-0.1-0.1-0.1
	c0-0.1-0.1-0.1-0.1-0.2c0,0,0,0,0,0l-6.6-5.6l-1,1.2l4.9,4.1H7c-0.4,0-0.8,0.4-0.8,0.8s0.4,0.8,0.8,0.8h15.8l-4.9,4.1l1,1.2l6.6-5.6
	c0,0,0,0,0,0C25.6,16.5,25.6,16.5,25.7,16.4z"/>
</svg>
