<?xml version="1.0" encoding="utf-8"?>
<!-- Generator: Adobe Illustrator 18.0.0, SVG Export Plug-In . SVG Version: 6.00 Build 0)  -->
<!DOCTYPE svg PUBLIC "-//W3C//DTD SVG 1.1//EN" "http://www.w3.org/Graphics/SVG/1.1/DTD/svg11.dtd">
<svg version="1.1" id="Calque_1" xmlns="http://www.w3.org/2000/svg" xmlns:xlink="http://www.w3.org/1999/xlink" x="0px" y="0px"
	 viewBox="496 496 32 32" enable-background="new 496 496 32 32" xml:space="preserve">
<path fill="#1F1F20" d="M523.9,511.5l-4.5-3.2c-0.1-0.1-3.3-2.7-7.5-2.7c0,0,0,0,0,0c0,0,0,0,0,0c0,0,0,0,0,0
	c-4.1,0-7.3,2.6-7.4,2.6l-4.5,3.2c-0.2,0.1-0.3,0.3-0.3,0.5c0,0.2,0.1,0.4,0.3,0.5l4.5,3.2c0.1,0.1,3.3,2.7,7.5,2.7h0
	c4.1,0,7.3-2.6,7.4-2.6l4.5-3.2c0.2-0.1,0.3-0.3,0.3-0.5C524.2,511.8,524.1,511.6,523.9,511.5z M512,506.9
	C512,506.9,512,506.9,512,506.9c2.2,0,4,1.8,4,4c0,2.2-1.8,4-4,4s-4-1.8-4-4C508,508.7,509.8,506.9,512,506.9z M518.7,514.7
	c0,0-3,2.4-6.7,2.4h0c-3.7,0-6.6-2.4-6.7-2.4l-3.8-2.7l3.8-2.7c0,0,0.9-0.7,2.3-1.4c-0.6,0.9-0.9,1.9-0.9,3c0,2.9,2.4,5.3,5.3,5.3
	c2.9,0,5.3-2.4,5.3-5.3c0-1.1-0.3-2.1-0.9-3c1.4,0.6,2.3,1.4,2.4,1.4l3.8,2.7L518.7,514.7z"/>
</svg>
