<?xml version="1.0" encoding="utf-8"?>
<!-- Generator: Adobe Illustrator 18.0.0, SVG Export Plug-In . SVG Version: 6.00 Build 0)  -->
<!DOCTYPE svg PUBLIC "-//W3C//DTD SVG 1.1//EN" "http://www.w3.org/Graphics/SVG/1.1/DTD/svg11.dtd">
<svg version="1.1" id="Calque_1" xmlns="http://www.w3.org/2000/svg" xmlns:xlink="http://www.w3.org/1999/xlink" x="0px" y="0px"
	 viewBox="0 0 32 32" enable-background="new 0 0 32 32" xml:space="preserve">
<path d="M13.7,17l0,5.7c1.7,0,7.2,0.3,7.2-2.9C20.9,16.5,15.4,17,13.7,17z M19.7,11.8c0-3.1-4.6-2.5-6.1-2.5l0,5.2
	C15.1,14.4,19.7,14.7,19.7,11.8z M18.3,25.7l0,4.3l-2.6,0l0-4.2c-0.6,0-1.3,0-2,0l0,4.2l-2.6,0l0-4.3c-0.6,0-1.2,0-1.9,0l-3.3,0
	l0.5-3.1c0,0,1.9,0,1.9,0c0.7,0,0.9-0.5,1-0.9c0-11.6,0,0,0-11.6C9.1,9.7,8.8,9,7.8,9.1c0-0.1-1.9,0-1.9,0l0-2.7l3.6,0l0,0
	c0.5,0,1.1,0,1.7,0l0-4.2l2.6,0l0,4.2c0.7,0,1.4-0.1,2,0l0-4.1l2.6,0l0,4.2c3.3,0.3,6,1.3,6.3,4.3c0.2,2.2-0.7,3.6-2.2,4.3
	c2.5,0.6,4,2,3.7,5.3C25.7,24.4,22.7,25.4,18.3,25.7z"/>
<g>
</g>
</svg>
