<?xml version="1.0" encoding="utf-8"?>
<!-- Generator: Adobe Illustrator 18.0.0, SVG Export Plug-In . SVG Version: 6.00 Build 0)  -->
<!DOCTYPE svg PUBLIC "-//W3C//DTD SVG 1.1//EN" "http://www.w3.org/Graphics/SVG/1.1/DTD/svg11.dtd">
<svg version="1.1" id="Calque_1" xmlns="http://www.w3.org/2000/svg" xmlns:xlink="http://www.w3.org/1999/xlink" x="0px" y="0px"
	 viewBox="0 0 32 32" enable-background="new 0 0 32 32" xml:space="preserve">
<path fill="#231F20" d="M24.3,9.2c-2.3,0-4.1,1.8-4.1,4.1c0,2.3,1.8,4.1,4.1,4.1h5.9V4c0-1.1-0.9-2-2-2H4.6c-1.1,0-2,0.9-2,2v18.4
	c0,1.1,0.9,2,2,2h5l5.5,5c0.4,0.3,0.8,0.5,1.3,0.5c0.5,0,0.9-0.2,1.3-0.5l5.5-5h5c1.1,0,2-0.9,2-2v-4.1h-5.9c-2.8,0-5.1-2.3-5.1-5.1
	s2.3-5.1,5.1-5.1h4.9v1H24.3z M24,14.8c-0.8,0-1.5-0.7-1.5-1.5s0.7-1.5,1.5-1.5s1.5,0.7,1.5,1.5S24.9,14.8,24,14.8z M21.7,21.9
	c0.4-0.4,1-0.3,1.4,0.1c0.4,0.4,0.3,1-0.1,1.4l-6,5.4c-0.4,0.3-0.9,0.3-1.3,0l-6-5.4c-0.4-0.4-0.4-1-0.1-1.4
	c0.2-0.2,0.5-0.3,0.7-0.3c0.2,0,0.5,0.1,0.6,0.3l4.4,4V12c0-0.5,0.4-1,1-1s1,0.4,1,1v13.9L21.7,21.9z"/>
</svg>
