<?xml version="1.0" encoding="utf-8"?>
<!-- Generator: Adobe Illustrator 18.0.0, SVG Export Plug-In . SVG Version: 6.00 Build 0)  -->
<!DOCTYPE svg PUBLIC "-//W3C//DTD SVG 1.1//EN" "http://www.w3.org/Graphics/SVG/1.1/DTD/svg11.dtd">
<svg version="1.1" id="Calque_1" xmlns="http://www.w3.org/2000/svg" xmlns:xlink="http://www.w3.org/1999/xlink" x="0px" y="0px"
	 viewBox="495 495 34 34" enable-background="new 495 495 34 34" xml:space="preserve">
<path fill="#1F1F20" d="M525.9,499.2c0-0.1,0-0.1-0.1-0.2c0,0,0-0.1,0-0.1c0-0.1-0.1-0.1-0.1-0.2c0,0,0,0,0,0c0,0,0,0,0,0
	c0,0,0,0,0,0c-0.1,0-0.1-0.1-0.2-0.1c0,0,0,0,0,0c-0.1,0-0.1,0-0.2,0c0,0-0.1,0-0.1,0c-0.1,0-0.1,0-0.2,0c0,0-0.1,0-0.1,0
	c0,0,0,0-0.1,0l-26.1,12.6c-0.3,0.2-0.5,0.5-0.5,0.8s0.3,0.6,0.6,0.7l8.1,2.1l0.5,9.1c0,0.4,0.3,0.7,0.6,0.8c0.1,0,0.2,0,0.3,0
	c0.3,0,0.5-0.1,0.7-0.3l4.3-5.5l6.6,6.4c0.2,0.2,0.4,0.2,0.6,0.2c0.1,0,0.2,0,0.3,0c0.3-0.1,0.5-0.3,0.6-0.7l4.6-25.3
	C525.9,499.4,525.9,499.3,525.9,499.2C525.9,499.2,525.9,499.2,525.9,499.2z M507.5,513.2l-6.1-1.6l18.1-8.7L507.5,513.2z
	 M512.4,517.1l-3.5,4.5l-0.4-7.1l12.6-10.7L512.4,517.1z M519.9,523l-5.7-5.5l9.2-14.2L519.9,523z"/>
</svg>
