<?xml version="1.0" encoding="utf-8"?>
<!-- Generator: Adobe Illustrator 18.0.0, SVG Export Plug-In . SVG Version: 6.00 Build 0)  -->
<!DOCTYPE svg PUBLIC "-//W3C//DTD SVG 1.1//EN" "http://www.w3.org/Graphics/SVG/1.1/DTD/svg11.dtd">
<svg version="1.1" id="Calque_1" xmlns="http://www.w3.org/2000/svg" xmlns:xlink="http://www.w3.org/1999/xlink" x="0px" y="0px"
	 viewBox="0 0 32 32" enable-background="new 0 0 32 32" xml:space="preserve">
<path fill="none" d="M10.6,16c0,2.4-1.7,4.3-4,4.7V22c0,1.2,1,2.2,2.2,2.2h18c1.2,0,2.2-1,2.2-2.2V10c0-1.2-1-2.2-2.2-2.2h-18
	c-1.2,0-2.2,1-2.2,2.2v1.3C8.9,11.7,10.6,13.6,10.6,16z"/>
<path fill="#231F20" d="M27,6.2H9c-2.1,0-3.8,1.7-3.8,3.8v1.3c-2.3,0.4-4,2.3-4,4.7c0,2.4,1.7,4.3,4,4.7V22c0,2.1,1.7,3.8,3.8,3.8
	h18c2.1,0,3.8-1.7,3.8-3.8V10C30.8,7.9,29.1,6.2,27,6.2z M6,19.2c-0.3,0-0.5,0-0.8-0.1c-1.4-0.4-2.4-1.6-2.4-3.1s1-2.7,2.4-3.1
	c0.3-0.1,0.5-0.1,0.8-0.1s0.5,0,0.8,0.1c1.4,0.4,2.4,1.6,2.4,3.1s-1,2.7-2.4,3.1C6.5,19.2,6.3,19.2,6,19.2z M27,24.2H9
	c-1.2,0-2.2-1-2.2-2.2v-1.3c2.3-0.4,4-2.3,4-4.7c0-2.4-1.7-4.3-4-4.7V10c0-1.2,1-2.2,2.2-2.2h18c1.2,0,2.2,1,2.2,2.2v9.2H25
	c-1.8,0-3.2-1.4-3.2-3.2s1.4-3.2,3.2-3.2h3v-1.6h-3c-2.6,0-4.8,2.2-4.8,4.8c0,2.6,2.2,4.8,4.8,4.8h4.2V22
	C29.2,23.2,28.2,24.2,27,24.2z M8.5,16.8h-5v-1.6h5V16.8z M26.5,16c0,0.8-0.7,1.5-1.5,1.5s-1.5-0.7-1.5-1.5s0.7-1.5,1.5-1.5
	S26.5,15.2,26.5,16z"/>
</svg>
