<?xml version="1.0" encoding="utf-8"?>
<!-- Generator: Adobe Illustrator 18.0.0, SVG Export Plug-In . SVG Version: 6.00 Build 0)  -->
<!DOCTYPE svg PUBLIC "-//W3C//DTD SVG 1.1//EN" "http://www.w3.org/Graphics/SVG/1.1/DTD/svg11.dtd">
<svg version="1.1" id="Calque_1" xmlns="http://www.w3.org/2000/svg" xmlns:xlink="http://www.w3.org/1999/xlink" x="0px" y="0px"
	 viewBox="497 496 32 32" enable-background="new 497 496 32 32" xml:space="preserve">
<g>
	<path d="M519,511.6c1-0.9,1.6-2.3,1.6-3.8c0-2.8-2.2-5-4.9-5.2l-11.7,0v1.9h2.9v14.9h-2.3v2h12c2.9,0,5.2-2.3,5.2-5.2
		C521.9,514.2,520.7,512.4,519,511.6z M515.4,504.5c1.8,0,3.3,1.5,3.3,3.3c0,1.8-1.5,3.3-3.3,3.3h-5.5h-1v-6.5H515.4z M516.7,519.5
		h-7.8V513h1h5.5h1.3c1.8,0,3.3,1.5,3.3,3.3C520,518,518.5,519.5,516.7,519.5z"/>
	<rect x="509.1" y="499" width="2" height="2.6"/>
	<rect x="513" y="499" width="2" height="2.6"/>
	<rect x="509.1" y="522.4" width="2" height="2.6"/>
	<rect x="513" y="522.4" width="2" height="2.6"/>
</g>
</svg>
