<?xml version="1.0" encoding="utf-8"?>
<!-- Generator: Adobe Illustrator 18.0.0, SVG Export Plug-In . SVG Version: 6.00 Build 0)  -->
<!DOCTYPE svg PUBLIC "-//W3C//DTD SVG 1.1//EN" "http://www.w3.org/Graphics/SVG/1.1/DTD/svg11.dtd">
<svg version="1.1" fill="#f4f2fc" xmlns="http://www.w3.org/2000/svg" xmlns:xlink="http://www.w3.org/1999/xlink" x="0px" y="0px"
	 viewBox="0 0 34 34" enable-background="new 0 0 34 34" xml:space="preserve">
<path d="M17,23.5c-3.6,0-6.5-2.9-6.5-6.5s2.9-6.5,6.5-6.5c2,0,3.8,0.9,5,2.3l-2.9,2.9l9.8,0.5l-0.5-9.8l-2.9,2.9
	C23.4,7,20.4,5.5,17,5.5C10.7,5.5,5.5,10.7,5.5,17c0,6.3,5.2,11.5,11.5,11.5c3,0,5.7-1.2,7.8-3.1l-3.5-3.5
	C20.1,22.9,18.6,23.5,17,23.5z"/>
</svg>
