<?xml version="1.0" encoding="utf-8"?>
<!-- Generator: Adobe Illustrator 18.0.0, SVG Export Plug-In . SVG Version: 6.00 Build 0)  -->
<!DOCTYPE svg PUBLIC "-//W3C//DTD SVG 1.1//EN" "http://www.w3.org/Graphics/SVG/1.1/DTD/svg11.dtd">
<svg version="1.1" id="Calque_1" xmlns="http://www.w3.org/2000/svg" xmlns:xlink="http://www.w3.org/1999/xlink" x="0px" y="0px"
	 viewBox="0 0 32 32" enable-background="new 0 0 32 32" xml:space="preserve">
<path fill="#7C5CD1" d="M14.2,16.8l0.1,4.5c1.4,0,5.7,0.2,5.7-2.3C19.9,16.3,15.6,16.8,14.2,16.8z M18.9,12.7c-0.1-2.4-3.6-2-4.8-2
	l0.1,4.1C15.3,14.7,19,14.9,18.9,12.7z M17.9,23.6l0.1,3.4h-2l-0.1-3.3c-0.5,0-1.1,0-1.6,0l0.1,3.3h-2l-0.1-3.4c-0.5,0-1,0-1.5,0
	l-2.6,0.1l0.4-2.4c0,0,1.5,0,1.5,0c0.6,0,0.7-0.4,0.8-0.7c-0.1-9.1,0,0-0.1-9.1c-0.1-0.4-0.4-0.9-1.2-0.9c0-0.1-1.5,0-1.5,0L8,8.4
	l2.8-0.1l0,0c0.4,0,0.9,0,1.3-0.1L12.1,5h2l0.1,3.3c0.6,0,1.1-0.1,1.6-0.1L15.7,5h2l0.1,3.3c2.6,0.2,4.7,1,5,3.4
	c0.2,1.8-0.6,2.8-1.7,3.4c2,0.5,3.2,1.6,3,4.2C23.7,22.5,21.3,23.4,17.9,23.6z"/>
</svg>
