<?xml version="1.0" encoding="utf-8"?>
<!-- Generator: Adobe Illustrator 18.0.0, SVG Export Plug-In . SVG Version: 6.00 Build 0)  -->
<!DOCTYPE svg PUBLIC "-//W3C//DTD SVG 1.1//EN" "http://www.w3.org/Graphics/SVG/1.1/DTD/svg11.dtd">
<svg version="1.1" id="Calque_1" xmlns="http://www.w3.org/2000/svg" xmlns:xlink="http://www.w3.org/1999/xlink" x="0px" y="0px"
	 viewBox="496 496 32 32" enable-background="new 496 496 32 32" xml:space="preserve">
<g>
	<path d="M523.3,501.1c-0.3-0.3-0.9-0.3-1.2,0l-21.4,20.7c-0.3,0.3-0.3,0.9,0,1.2c0.2,0.2,0.4,0.3,0.6,0.3c0.2,0,0.4-0.1,0.6-0.2
		l21.4-20.7C523.6,501.9,523.7,501.4,523.3,501.1z"/>
	<path d="M505.2,510.4c2.6,0,4.8-2.1,4.8-4.8s-2.1-4.8-4.8-4.8s-4.8,2.1-4.8,4.8S502.6,510.4,505.2,510.4z M505.2,502.5
		c1.7,0,3.1,1.4,3.1,3.1s-1.4,3.1-3.1,3.1s-3.1-1.4-3.1-3.1S503.5,502.5,505.2,502.5z"/>
	<path d="M518.8,513.6c-2.6,0-4.8,2.1-4.8,4.8c0,2.6,2.1,4.8,4.8,4.8s4.8-2.1,4.8-4.8C523.6,515.8,521.4,513.6,518.8,513.6z
		 M518.8,521.5c-1.7,0-3.1-1.4-3.1-3.1c0-1.7,1.4-3.1,3.1-3.1s3.1,1.4,3.1,3.1C521.9,520.1,520.5,521.5,518.8,521.5z"/>
</g>
</svg>
