<?xml version="1.0" encoding="utf-8"?>
<!-- Generator: Adobe Illustrator 18.0.0, SVG Export Plug-In . SVG Version: 6.00 Build 0)  -->
<!DOCTYPE svg PUBLIC "-//W3C//DTD SVG 1.1//EN" "http://www.w3.org/Graphics/SVG/1.1/DTD/svg11.dtd">
<svg version="1.1" id="Calque_1" xmlns="http://www.w3.org/2000/svg" xmlns:xlink="http://www.w3.org/1999/xlink" x="0px" y="0px"
	 viewBox="0 0 820 340" enable-background="new 0 0 820 340" xml:space="preserve">
	<path fill="#7c5cd1" d="M471.4,244.4c-1.6,0-3.7-0.5-5.3-1.1h-0.5l-0.5-0.5c-0.5-0.5-4.3-3.2-4.8-8.5c-0.5-3.7,1.1-8,4.2-11.7
		c3.2-4.3,8-6.4,12.8-9l1.1-11.2c-1.1,0.5-2.7,0.5-4.3,0.5c-1.1,0-2.7-0.5-3.7-0.5c0,0,0,0-0.5,0c-3.2,9.6-10.6,14.3-18.6,18.1v2.1
		c-0.5,2.7-2.1,15.9-9.6,20.2c-1.6,1.1-3.2,1.1-5.3,1.1c-1.6,0-3.7-0.5-5.3-1.1h-0.5l-0.5-0.5c0.5,0-3.2-3.2-3.7-8.5
		c-0.5-3.7,1.1-8,4.3-11.7c3.2-3.7,8-6.4,12.8-8.5l1.1-11.7c-1.1,0.5-2.7,0.5-4.3,0.5c-1.1,0-2.7-0.5-3.7-0.5
		c-2.1-0.5-3.7-2.1-5.3-3.7c-2.7,3.2-5.8,5.3-9,6.4c-0.5,0-1.1,0-2.1,0c-2.7,0-6.9-1.1-10.1-6.4c-1.1,1.6-2.7,3.2-4.3,4.2
		c-2.7,1.6-5.3,2.7-8.5,2.7c-1.6,0-3.2-0.5-5.3-0.5c-4.8-1.1-7.4-4.3-9.6-9c-3.7,5.3-7.4,8-11.7,8c-0.5,0-1.1,0-1.6,0
		c-4.2-0.5-7.4-2.7-9.6-6.4c-2.7-4.8-2.1-12.2,1.6-22.3c-0.5,0-1.6,0-2.1,0c-1.1,0-2.7,0-4.3-0.5c-1.1,5.3-2.7,9.6-4.3,13.3
		c-2.7,8-10.1,14.9-17.5,14.9h-0.5c-3.2,0-11.2-1.6-12.8-15.4c-1.6-13.3,2.7-31.3,6.9-45.7c-7.4,0-12.2,1.1-14.3,2.7l-2.1,1.6
		l-5.3-7.4l1.6-1.6c9-8.5,12.2-16.5,9-24.4c-1.6-4.2-5.3-7.4-9.6-7.4h-0.5c-4.3,0-7.4,3.2-9,8c-3.2,9.6,1.1,26,4.3,39.3l0.5,3.2
		c4.8,19.1,4.8,33.5-0.5,42.5c-3.2,5.8-10.6,10.1-18.6,10.6c-1.1,0-1.6,0-2.7,0c-6.9,0-13.3-2.7-17.5-8c-10.1-11.7-8.5-26,4.8-42.5
		l1.6-2.1l7.4,6.4l-1.1,2.7c-10.1,12.2-11.7,22.3-4.8,29.7c3.2,3.7,7.4,4.8,10.1,4.8c0.5,0,1.1,0,1.6,0c4.8-0.5,9-2.7,11.2-6.4
		c3.7-6.4,3.7-18.6-0.5-35.1l-0.5-3.2c-4.3-14.9-8.5-32.4-4.3-44.6c3.2-9,10.1-14.3,18.1-14.3h0.5c8,0,14.9,5.3,18.6,13.3
		c3.2,8,2.7,15.4-1.6,23.4c1.6,0,3.7,0,6.4,0c0.5,0,0.5,0,1.1,0c0.5-2.7,1.6-4.8,2.1-7.4c1.1-3.2,1.6-5.8,2.7-8.5l0.5-2.7l9,2.7
		l-0.5,2.7c-1.1,2.7-1.6,5.3-2.7,8.5c-0.5,1.6-1.1,3.2-1.6,4.8c4.8,0.5,10.1,0.5,15.4,1.1c10.1,1.1,20.7,1.6,30.3,1.6
		c14.3,0,23.4-1.6,28.2-5.8c2.1-1.6,3.2-4.3,3.2-6.9v-2.7l9.6,0.5v2.7c-0.5,5.3-2.7,10.1-6.4,13.8c-6.4,5.8-17.5,8.5-34.5,8.5
		c-9.6,0-20.7-1.1-30.8-1.6c-5.8-0.5-12.2-1.1-18.1-1.1c-0.5,2.7-1.6,4.8-2.1,7.4c1.6-2.7,4.8-4.2,8-4.2c0.5,0,1.1,0,1.6,0
		c4.3,0,6.4,1.6,8,3.2c5.3,3.2,5.3,10.6,5.3,11.7v0.5c0,1.1-0.5,2.7-0.5,3.7c1.1,0,1.6,0,2.7,0s2.1,0,3.2-0.5
		c1.1-0.5,3.2-1.1,4.3-2.1l1.1-2.1l2.1,1.1l6.4,3.2l-1.1,2.7c0,0,0,0.5-0.5,0.5c-4.8,9-8.5,21.3-6.4,25c0.5,0.5,0.5,1.1,2.1,1.1
		c1.1,0,4.8-3.2,10.1-16.5c3.7-9.6,6.4-20.2,6.4-20.2s0-1.1,0.5-1.1l0.5-2.7l9.6,1.6l-0.5,2.7c0,0.5-0.5,1.1-0.5,2.1l0,0
		c-0.5,1.6-1.1,3.7-1.6,5.8c-2.7,9-7.4,28.2-0.5,30.3c1.1,0.5,1.6,0.5,2.7,0.5s2.1-0.5,2.7-1.1c4.3-2.7,5.3-10.1,5.3-10.1l4.3-34.5
		l9.6,1.1l-0.5,2.7c-2.1,20.2-2.7,37.2-1.1,39.3c0.5,1.1,1.6,2.1,2.1,2.1c0,0,0,0,0.5,0c2.1-0.5,5.3-4.2,5.8-8.5l0.5-2.7h0.5
		c0-3.2,0-6.4,0-10.1c1.6-19.1,9.6-26,17-26c4.8,0,8.5,2.7,10.6,6.9l3.2,0.5v2.7c0,0-0.5,8-1.1,17c-0.5,4.2-1.1,8-1.6,11.2
		l-2.1,22.8c4.8-3.2,9-7.4,9-17c-1.1-4.2-1.6-10.6-1.1-17.5c1.6-19.1,9.6-26,17-26c4.8,0,8.5,2.7,10.6,6.9l3.2,0.5v2.7
		c0,0-0.5,8.5-1.1,17c-0.5,4.3-1.1,8-1.6,11.2l-2.1,21.3c4.3-3.7,8.5-9,8.5-18.6v-3.7h0.5c-1.1-12.2,1.6-29.2,4.3-47.8
		c2.1-12.8,4.3-25.5,4.8-36.7v-2.7l9.6,0.5v2.7c-0.5,11.7-2.7,25-4.8,37.7c-3.2,20.7-6.9,46.8-1.6,53.7c0.5,1.1,1.6,1.1,2.7,1.6l0,0
		c0,0,0.5,0,1.1-0.5c2.1-2.7,3.7-9,3.2-13.3c0-0.5,0-1.1-0.5-2.1c-1.1-13.8,5.8-29.8,19.1-32.4h0.5h0.5c9,0,14.3,7.4,14.3,19.1
		c0,6.9-2.7,14.3-5.8,20.2c-1.1,2.1-2.7,4.3-4.3,5.3c9-1.6,13.8-10.6,15.9-30.3l0.5-2.7l9.6,1.1l-0.5,2.1
		c-2.7,20.7-7.4,39.3-28.7,39.3h-0.5c-5.3,0-9.6-1.6-13.3-5.3c-1.1,2.1-2.1,3.7-3.2,4.8c-2.1,2.1-4.8,3.7-8,3.7c-0.5,0-1.1,0-1.1,0
		c-2.7-0.5-4.8-1.1-6.4-2.7c-3.7,9-10.6,14.3-17,18.1v3.7c-0.5,2.7-2.1,15.9-9.6,20.2C474.6,244.4,473,244.4,471.4,244.4z
		 M470.9,234.8c0.5,0,0.5,0,0.5,0s0,0,0.5,0c1.6-1.1,3.2-4.8,4.3-9c-1.6,1.1-2.7,2.1-3.7,3.2c-1.6,1.6-2.1,3.2-1.6,4.3
		C469.8,233.8,470.4,234.3,470.9,234.8z M436.4,234.3c0.5,0,0.5,0,0.5,0s0,0,0.5,0c1.6-1.1,3.2-4.8,4.3-8.5
		c-1.6,1.1-2.7,2.1-3.7,3.2c-1.6,1.6-2.1,3.2-1.6,4.3C435.8,233.2,435.8,234.3,436.4,234.3z M478.3,157.8c-2.7,0-6.4,4.8-7.4,17
		c-1.1,17,2.7,18.6,2.7,18.6h0.5c1.6,0,3.2-1.6,4.3-2.1c0,0,0.5-1.1,1.6-6.9l2.1-20.7h-0.5V161C481,159.4,479.9,157.8,478.3,157.8
		L478.3,157.8z M443.8,157.3c-2.7,0-6.4,4.8-7.4,17c-1.1,17,2.7,18.6,2.7,18.6h0.5c1.6,0,3.2-1.6,4.3-2.1c0,0,0.5-1.1,1.6-6.9
		l2.1-20.7H447v-2.7C446.5,158.8,445.4,157.3,443.8,157.3L443.8,157.3z M337.6,191.3l1.1-1.1c0.5-0.5,2.1-1.6,3.7-5.3v-0.5v0.5
		l1.1-3.2c1.1-2.7,1.6-5.8,2.7-9.6c-3.2-1.1-5.8-2.7-8-4.8c-2.7-2.7-4.8-5.8-4.8-9.6c-2.7,10.1-4.3,20.2-3.2,28.2
		c0.5,2.1,1.1,6.4,3.7,6.9l0,0h0.5C335.4,192.8,337,192.3,337.6,191.3z M535.2,155.7c-7.4,1.6-11.7,12.8-10.6,21.8l0,0
		c0,0.5,0,1.1,0,1.6c0.5,1.6,1.1,4.8,2.1,6.9c7.4-1.1,12.2-12.8,12.2-21.3C539.4,163.1,539.4,156.2,535.2,155.7z M345,154.6
		c-0.5,0-0.5,0-0.5,0c-1.1,0-1.6,0.5-1.6,1.1c-0.5,1.6,0.5,3.2,1.6,4.3c1.1,0.5,1.6,1.6,3.2,2.1c0-0.5,0-1.6,0.5-2.1v-0.5
		c0-1.1-0.5-3.7-1.1-4.8C346.1,154.6,346.1,154.6,345,154.6z"/>
</svg>
